<svg width="24" height="24" viewBox="0 0 24 24" fill="none" xmlns="http://www.w3.org/2000/svg">
<path d="M12 5.96875C8.25391 5.96875 5.21875 9.00391 5.21875 12.75C5.21875 16.4961 8.25391 19.5312 12 19.5312C15.7461 19.5312 18.7812 16.4961 18.7812 12.75C18.7812 9.00391 15.7461 5.96875 12 5.96875ZM17.9062 12.75C17.9062 16.0039 15.2539 18.6562 12 18.6562C8.74609 18.6562 6.09375 16.0312 6.09375 12.75C6.09375 9.52344 8.71875 6.84375 12 6.84375C15.2266 6.84375 17.9062 9.49609 17.9062 12.75Z" fill="#E22E2E"/>
<circle cx="12" cy="16.5" r="0.5" fill="#E22E2E"/>
<line x1="12" y1="9.5" x2="12" y2="14.5" stroke="#E22E2E" stroke-linecap="round"/>
</svg>
