<svg width="12" height="16" viewBox="0 0 12 16" fill="none" xmlns="http://www.w3.org/2000/svg">
<path d="M6 11C7.65625 11 9 9.6875 9 8V3C9 1.34375 7.65625 0 6 0C4.3125 0 3 1.34375 3 3V8C3 9.6875 4.3125 11 6 11ZM11 6H10.5C10.2188 6 10 6.25 10 6.5V8C10 10.3438 7.96875 12.2188 5.59375 12C3.5 11.7812 2 9.9375 2 7.84375V6.5C2 6.25 1.75 6 1.5 6H1C0.71875 6 0.5 6.25 0.5 6.5V7.78125C0.5 10.5625 2.46875 13.0625 5.25 13.4375V14.5H3.5C3.21875 14.5 3 14.75 3 15V15.5C3 15.7812 3.21875 16 3.5 16H8.5C8.75 16 9 15.7812 9 15.5V15C9 14.75 8.75 14.5 8.5 14.5H6.75V13.4688C9.40625 13.0938 11.5 10.7812 11.5 8V6.5C11.5 6.25 11.25 6 11 6Z" fill="white"/>
</svg>
